<svg width="123" height="17" viewBox="0 0 123 17" fill="none" xmlns="http://www.w3.org/2000/svg">
<path d="M2.222 6.754H14.19V10.604H2.222V6.754ZM14.608 0V3.85H2.376L4.554 1.672V16.5H0V0H14.608Z" fill="black"/>
<path d="M23.5139 16.852C21.9885 16.852 20.6245 16.5733 19.4219 16.016C18.2339 15.4587 17.2952 14.6813 16.6059 13.684C15.9165 12.672 15.5719 11.4987 15.5719 10.164C15.5719 8.85867 15.9019 7.71467 16.5619 6.732C17.2219 5.73467 18.1239 4.95733 19.2679 4.4C20.4265 3.84267 21.7319 3.564 23.1839 3.564C24.6945 3.564 25.9779 3.894 27.0339 4.554C28.1045 5.19933 28.9259 6.116 29.4979 7.304C30.0845 8.492 30.3779 9.89267 30.3779 11.506H19.2019V8.8H27.8479L26.3739 9.746C26.3152 9.10067 26.1539 8.558 25.8899 8.118C25.6259 7.66333 25.2739 7.31867 24.8339 7.084C24.4085 6.84933 23.8952 6.732 23.2939 6.732C22.6339 6.732 22.0692 6.864 21.5999 7.128C21.1305 7.392 20.7639 7.75867 20.4999 8.228C20.2359 8.68267 20.1039 9.218 20.1039 9.834C20.1039 10.626 20.2799 11.3007 20.6319 11.858C20.9985 12.4007 21.5265 12.8187 22.2159 13.112C22.9199 13.4053 23.7779 13.552 24.7899 13.552C25.7139 13.552 26.6305 13.4347 27.5399 13.2C28.4639 12.9507 29.2999 12.606 30.0479 12.166V15.026C29.1825 15.6127 28.1925 16.0673 27.0779 16.39C25.9779 16.698 24.7899 16.852 23.5139 16.852Z" fill="black"/>
<path d="M43.4321 16.5L42.8601 11.968L43.4541 10.23L42.8601 8.492L43.4321 3.938H48.0961L47.3041 10.208L48.0961 16.5H43.4321ZM44.4881 10.23C44.2828 11.55 43.8721 12.7087 43.2561 13.706C42.6548 14.7033 41.8848 15.4807 40.9461 16.038C40.0221 16.5807 38.9661 16.852 37.7781 16.852C36.5461 16.852 35.4608 16.5807 34.5221 16.038C33.5981 15.4807 32.8721 14.7033 32.3441 13.706C31.8161 12.694 31.5521 11.5353 31.5521 10.23C31.5521 8.89533 31.8161 7.72933 32.3441 6.732C32.8721 5.73467 33.5981 4.95733 34.5221 4.4C35.4608 3.84267 36.5461 3.564 37.7781 3.564C38.9661 3.564 40.0221 3.84267 40.9461 4.4C41.8848 4.94267 42.6621 5.71267 43.2781 6.71C43.8941 7.69267 44.2975 8.866 44.4881 10.23ZM36.1061 10.23C36.1061 10.846 36.2308 11.396 36.4801 11.88C36.7441 12.364 37.1035 12.7453 37.5581 13.024C38.0128 13.288 38.5335 13.42 39.1201 13.42C39.7361 13.42 40.3155 13.288 40.8581 13.024C41.4008 12.7453 41.8775 12.364 42.2881 11.88C42.6988 11.396 43.0068 10.846 43.2121 10.23C43.0068 9.59934 42.6988 9.042 42.2881 8.558C41.8775 8.074 41.4008 7.69267 40.8581 7.414C40.3155 7.13533 39.7361 6.996 39.1201 6.996C38.5335 6.996 38.0128 7.13533 37.5581 7.414C37.1035 7.69267 36.7441 8.074 36.4801 8.558C36.2308 9.042 36.1061 9.59934 36.1061 10.23Z" fill="black"/>
<path d="M48.9359 7.26V5.302L51.4879 4.268L53.4239 0.550001H55.9759V3.938H61.2559V7.26H55.9759V10.956C55.9759 11.8653 56.1592 12.5033 56.5259 12.87C56.8926 13.2367 57.5599 13.42 58.5279 13.42C59.1439 13.42 59.6866 13.3687 60.1559 13.266C60.6399 13.1487 61.0799 13.002 61.4759 12.826V16.214C61.0359 16.3753 60.4566 16.522 59.7379 16.654C59.0192 16.786 58.2786 16.852 57.5159 16.852C56.1226 16.852 54.9786 16.6393 54.0839 16.214C53.2039 15.7887 52.5512 15.18 52.1259 14.388C51.7006 13.5813 51.4879 12.6427 51.4879 11.572V7.26H48.9359Z" fill="black"/>
<path d="M68.4838 16.852C67.3104 16.852 66.3058 16.61 65.4698 16.126C64.6484 15.642 64.0178 14.96 63.5778 14.08C63.1378 13.1853 62.9178 12.144 62.9178 10.956V3.938H67.4058V10.318C67.4058 11.242 67.6331 11.9533 68.0878 12.452C68.5424 12.9507 69.1951 13.2 70.0458 13.2C70.6764 13.2 71.2044 13.0753 71.6298 12.826C72.0551 12.562 72.3851 12.188 72.6198 11.704C72.8544 11.22 72.9718 10.6407 72.9718 9.966L74.3578 10.692C74.1964 12.0267 73.8298 13.156 73.2578 14.08C72.7004 14.9893 72.0111 15.6787 71.1898 16.148C70.3684 16.6173 69.4664 16.852 68.4838 16.852ZM73.7858 16.5L72.9718 11.462V3.938H77.4598V12.166L78.2738 16.5H73.7858Z" fill="black"/>
<path d="M79.3593 3.938H83.9353L84.6833 8.426V16.5H80.1953V8.162L79.3593 3.938ZM90.5793 3.74V7.568C90.1393 7.48 89.7213 7.42133 89.3253 7.392C88.944 7.348 88.592 7.326 88.2693 7.326C87.624 7.326 87.03 7.458 86.4873 7.722C85.9447 7.97133 85.5047 8.38933 85.1673 8.976C84.8447 9.56267 84.6833 10.3473 84.6833 11.33L83.8253 10.274C83.9427 9.36467 84.1187 8.514 84.3533 7.722C84.588 6.91533 84.9033 6.204 85.2993 5.588C85.71 4.95733 86.216 4.466 86.8173 4.114C87.4187 3.74733 88.152 3.564 89.0173 3.564C89.2667 3.564 89.5233 3.57867 89.7873 3.608C90.0513 3.63733 90.3153 3.68133 90.5793 3.74Z" fill="black"/>
<path d="M98.9412 16.852C97.4159 16.852 96.0519 16.5733 94.8492 16.016C93.6612 15.4587 92.7226 14.6813 92.0332 13.684C91.3439 12.672 90.9992 11.4987 90.9992 10.164C90.9992 8.85867 91.3292 7.71467 91.9892 6.732C92.6492 5.73467 93.5512 4.95733 94.6952 4.4C95.8539 3.84267 97.1592 3.564 98.6112 3.564C100.122 3.564 101.405 3.894 102.461 4.554C103.532 5.19933 104.353 6.116 104.925 7.304C105.512 8.492 105.805 9.89267 105.805 11.506H94.6292V8.8H103.275L101.801 9.746C101.743 9.10067 101.581 8.558 101.317 8.118C101.053 7.66333 100.701 7.31867 100.261 7.084C99.8359 6.84933 99.3226 6.732 98.7212 6.732C98.0612 6.732 97.4966 6.864 97.0272 7.128C96.5579 7.392 96.1912 7.75867 95.9272 8.228C95.6632 8.68267 95.5312 9.218 95.5312 9.834C95.5312 10.626 95.7072 11.3007 96.0592 11.858C96.4259 12.4007 96.9539 12.8187 97.6432 13.112C98.3472 13.4053 99.2052 13.552 100.217 13.552C101.141 13.552 102.058 13.4347 102.967 13.2C103.891 12.9507 104.727 12.606 105.475 12.166V15.026C104.61 15.6127 103.62 16.0673 102.505 16.39C101.405 16.698 100.217 16.852 98.9412 16.852Z" fill="black"/>
<path d="M122.071 12.408C122.071 13.376 121.778 14.19 121.191 14.85C120.605 15.51 119.769 16.0087 118.683 16.346C117.598 16.6833 116.293 16.852 114.767 16.852C113.198 16.852 111.819 16.6613 110.631 16.28C109.458 15.8987 108.541 15.3633 107.881 14.674C107.221 13.9847 106.869 13.1853 106.825 12.276H111.379C111.482 12.6133 111.68 12.9067 111.973 13.156C112.281 13.3907 112.685 13.574 113.183 13.706C113.682 13.8233 114.276 13.882 114.965 13.882C115.86 13.882 116.535 13.794 116.989 13.618C117.459 13.442 117.693 13.178 117.693 12.826C117.693 12.5473 117.517 12.342 117.165 12.21C116.813 12.0633 116.212 11.9533 115.361 11.88L113.139 11.704C111.658 11.6013 110.477 11.3813 109.597 11.044C108.732 10.692 108.109 10.2447 107.727 9.702C107.346 9.14467 107.155 8.514 107.155 7.81C107.155 6.85667 107.449 6.072 108.035 5.456C108.637 4.82533 109.465 4.356 110.521 4.048C111.592 3.72533 112.839 3.564 114.261 3.564C115.669 3.564 116.923 3.74733 118.023 4.114C119.123 4.48067 120.003 4.994 120.663 5.654C121.323 6.29933 121.705 7.062 121.807 7.942H117.253C117.18 7.66333 117.019 7.414 116.769 7.194C116.52 6.95933 116.175 6.76867 115.735 6.622C115.295 6.47533 114.731 6.402 114.041 6.402C113.235 6.402 112.619 6.49 112.193 6.666C111.783 6.842 111.577 7.09133 111.577 7.414C111.577 7.66333 111.702 7.86133 111.951 8.008C112.215 8.15467 112.699 8.25734 113.403 8.316L116.329 8.536C117.781 8.624 118.925 8.83667 119.761 9.174C120.597 9.49667 121.191 9.92933 121.543 10.472C121.895 11.0147 122.071 11.66 122.071 12.408Z" fill="black"/>
</svg>
