<svg width="531" height="32" viewBox="0 0 531 32" fill="none" xmlns="http://www.w3.org/2000/svg">
<path d="M60.4378 31.8247L61.5473 29.2553H64.4086L63.2991 31.8247H60.4378Z" fill="#FBEA26"/>
<path d="M78.1314 21.6058C77.6058 20.6131 77.1971 19.562 75.0949 19.562H70.7737H62.3066H60.9635C60.9635 19.562 57.7518 26.5693 56.3504 28.6131C56.292 28.6715 56.2336 28.7299 56.1752 28.7299C56.1168 28.7299 56.0584 28.6715 56 28.6131C54.5985 26.5693 51.3869 19.562 51.3869 19.562H49.3431H48.1168C48.1752 18.4526 48.1752 17.2847 48.1752 16C48.1752 8.40876 47.4161 3.91241 45.9562 2.39416C44.3796 0.817518 39.5912 0 31.6496 0C23.708 0 18.9197 0.817518 17.3431 2.45255C15.8832 3.91241 15.1825 8.40876 15.1825 16C15.1825 17.2847 15.1825 18.4526 15.2409 19.562H6.89051C6.0146 19.562 6.0146 19.562 5.43066 19.562H4.55474C3.32847 19.6204 2.51095 19.6788 1.81022 20.0292C0.759124 20.4964 0.233577 21.5474 0.233577 23.2409C0.233577 25.0511 0.642336 26.1606 1.45985 26.6277C2.27737 27.0949 4.26277 27.3285 7.35766 27.3285C8.93431 27.3285 9.92701 27.3869 10.3358 27.5036C10.7445 27.6204 10.9197 27.9124 10.9197 28.3796C10.9197 28.7883 10.8029 28.9635 10.5109 29.0219C10.219 29.0803 9.16788 29.0803 7.35766 29.0803C5.54745 29.0803 4.55474 29.0219 4.26277 28.9051C3.9708 28.7883 3.79562 28.3796 3.79562 27.7372H0C0 29.1971 0.175182 30.1898 0.583942 30.7737C0.992701 31.3577 1.69343 31.708 2.74453 31.8248C3.44525 31.9416 4.90511 31.9416 7.24088 31.9416C10.2774 31.9416 11.9124 32 13.0803 31.4745C14.073 31.0073 14.5985 29.9562 14.5985 28.3796C14.5985 26.6277 14.1314 25.5182 13.2555 24.9927C12.3796 24.5255 10.3942 24.2336 7.29927 24.2336C5.89781 24.2336 5.0219 24.1752 4.55474 24.0584C4.08759 23.9416 3.91241 23.6496 3.91241 23.2409C3.91241 22.8321 4.0292 22.6569 4.32117 22.5401C4.49635 22.4234 4.90511 22.4234 5.66423 22.4234H8.05839H8.81752H14.2482H14.4818H15.2993C15.4161 24.4672 15.5912 25.927 15.8248 26.8613C16.4088 29.0803 17.8686 30.5401 20.146 31.2409C21.9562 31.7664 25.8102 32 31.5912 32C39.5328 32 44.3212 31.1825 45.8978 29.6058C46.8905 28.6131 47.5328 26.219 47.8832 22.4818H48.5255L52.4963 30.3066C53.3139 31.8248 53.9562 31.8248 55.0073 31.8248H57.2263C58.3358 31.8248 58.9197 31.8248 59.7956 30.3066L63.7664 22.4818H69.3139L64.6423 31.8248H69.0219L70.1898 29.781H77.6642L78.8321 31.8248H83.2117L78.1314 21.6058ZM42.4525 26.2774C41.4598 27.2701 37.8394 27.7372 31.708 27.7372C25.5766 27.7372 22.0146 27.2701 21.0219 26.2774C20.0292 25.3431 19.5036 21.8978 19.5036 16C19.5036 10.1022 20.0292 6.65693 21.0219 5.66423C21.4307 5.31387 22.1314 5.0219 23.2993 4.78832V6.30657H24.8175V4.49635C25.2847 4.43796 25.8686 4.37956 26.4526 4.32117V6.24817H27.9708V4.32117C28.4963 4.32117 29.0219 4.26277 29.6058 4.26277V6.36496H30.9489V4.26277C31.1825 4.26277 31.4161 4.26277 31.708 4.26277C32 4.26277 32.292 4.26277 32.5839 4.26277V6.36496H34.1022V4.26277C34.6861 4.26277 35.2117 4.32117 35.7372 4.32117V6.36496H37.2555V4.43796C37.8394 4.49635 38.365 4.55474 38.8905 4.61314V6.36496H40.4088V4.84671C41.4015 5.08029 42.1022 5.37226 42.5109 5.72263C43.5036 6.71533 44.0292 10.1022 44.0292 16.0584C43.9708 21.8978 43.4452 25.2847 42.4525 26.2774ZM71.6496 26.6277L73.6934 22.4234C73.6934 22.4234 73.8102 22.1314 73.9854 22.1314C74.1606 22.1314 74.2774 22.4234 74.2774 22.4234L76.2628 26.6277H71.6496Z" fill="#141414"/>
<path d="M24.7009 22.073H23.1826V25.7518H24.7009V22.073Z" fill="#141414"/>
<path d="M27.8539 22.073H26.3357V25.7518H27.8539V22.073Z" fill="#141414"/>
<path d="M30.9489 22.073H29.4307V25.7518H30.9489V22.073Z" fill="#141414"/>
<path d="M34.1023 22.073H32.584V25.7518H34.1023V22.073Z" fill="#141414"/>
<path d="M37.2554 22.073H35.7372V25.7518H37.2554V22.073Z" fill="#141414"/>
<path d="M40.3503 22.073H38.8321V25.7518H40.3503V22.073Z" fill="#141414"/>
<path fill-rule="evenodd" clip-rule="evenodd" d="M513.831 7.27099C513.596 7.02713 513.211 7.02442 512.973 7.26563L512.29 7.95708C511.045 9.05168 511.017 10.1087 511.11 10.633L511.363 12.2031C511.462 12.8214 511.135 13.3085 510.795 13.5577C510.377 13.8647 509.871 13.9072 509.44 13.6714L508.07 12.9223C507.342 12.5239 506.469 12.5178 505.736 12.9071L504.357 13.6384C503.91 13.8755 503.401 13.8346 502.995 13.5284C502.589 13.2225 502.399 12.7364 502.488 12.2281L502.76 10.6616C502.905 9.82912 502.64 8.97743 502.053 8.3831L500.948 7.26563C500.589 6.90266 500.47 6.39367 500.628 5.9039C500.787 5.41379 501.18 5.07918 501.679 5.00801L503.218 4.78943C504.035 4.67306 504.744 4.15259 505.114 3.39635L505.81 1.97426C506.035 1.51552 506.466 1.24264 506.967 1.24264H506.975C507.479 1.24601 507.912 1.52496 508.132 1.98944L508.81 3.42063C509.163 4.16508 509.482 4.40996 510.278 4.53881C510.567 4.61943 510.756 4.78943 510.842 5.0441C510.934 5.31935 510.888 5.65631 510.73 5.86342C510.582 6.05737 510.37 6.17475 510.134 6.19398C509.884 6.2149 509.634 6.11944 509.432 5.92717C509.173 5.67925 508.952 5.47046 508.952 5.47046C508.947 5.4664 508.942 5.46371 508.938 5.45967C508.933 5.45561 508.93 5.45089 508.925 5.44684C508.343 4.95741 507.593 4.71151 506.82 4.75806C505.129 4.8569 503.855 6.27392 503.92 7.98341C503.952 8.81285 504.297 9.57957 504.892 10.1428C505.457 10.6778 506.182 10.9682 506.947 10.9682C506.988 10.9682 507.029 10.9676 507.069 10.9659C507.85 10.9342 508.524 10.6461 508.968 10.1546C509.195 9.9027 509.18 9.50939 508.934 9.27667C508.688 9.04354 508.304 9.05942 508.077 9.31101C507.853 9.55894 507.478 9.70567 507.022 9.72393C506.537 9.74755 506.072 9.56844 505.715 9.23045C505.358 8.89246 505.151 8.43237 505.132 7.93482C505.093 6.90911 505.865 6.05872 506.89 5.99868C507.361 5.9727 507.805 6.11539 508.151 6.40412C508.209 6.4591 508.393 6.6335 508.606 6.83655C509.06 7.26929 509.637 7.48247 510.229 7.43292C510.801 7.38637 511.332 7.09324 511.686 6.62843C512.095 6.09177 512.214 5.31158 511.989 4.64068C511.766 3.97484 511.254 3.50868 510.549 3.32687L510.492 3.3154C510.078 3.25097 510.078 3.25097 509.901 2.87791L509.223 1.44671C508.803 0.560606 507.945 0.00640889 506.983 7.46652e-10L506.967 0C506.012 -4.24863e-08 505.154 0.541716 504.726 1.41736L504.03 2.83945C503.839 3.22972 503.472 3.49856 503.051 3.55859L501.512 3.77751C500.56 3.91277 499.78 4.5776 499.477 5.51228C499.175 6.44696 499.412 7.45756 500.095 8.14969L501.201 9.2675C501.504 9.57448 501.641 10.014 501.566 10.4438L501.294 12.0102C501.125 12.98 501.501 13.945 502.275 14.5289C503.049 15.113 504.061 15.1943 504.915 14.7417L506.294 14.0104C506.672 13.8097 507.122 13.8127 507.499 14.0182L508.868 14.7677C509.23 14.9657 509.625 15.0632 510.02 15.0632C510.537 15.0632 511.055 14.8962 511.502 14.5676C512.313 13.9719 512.719 12.988 512.56 12.0007L512.305 10.4208C512.221 9.94824 512.501 9.40413 513.093 8.88805L513.826 8.14969C514.064 7.90849 514.066 7.51518 513.831 7.27099Z" fill="#0070F3"/>
<path fill-rule="evenodd" clip-rule="evenodd" d="M530.289 4.17217C529.75 3.54605 528.971 3.21494 528.036 3.21494H525.86C525.819 3.21494 525.786 3.18103 525.786 3.13873V2.1093C525.786 1.12509 525.002 0.323944 524.039 0.323944H523.196C522.233 0.323944 521.45 1.12509 521.45 2.1093V3.13873C521.45 3.18103 521.416 3.21494 521.375 3.21494H519.199C518.243 3.21494 517.451 3.53584 516.909 4.14299C516.354 4.76291 516.109 5.62387 516.198 6.63287C516.341 8.26183 517.354 12.0757 517.471 12.5137C517.684 13.8057 518.761 14.7392 520.047 14.7392H523.897C525.337 14.7392 526.509 13.5409 526.509 12.0681V6.47315C526.552 6.21169 526.441 5.93784 526.206 5.79015C526.136 5.74639 526.061 5.71941 525.985 5.70445C525.985 5.70445 525.985 5.70409 525.984 5.70409C525.951 5.69753 525.918 5.69498 525.884 5.69388C525.874 5.69315 525.863 5.6906 525.852 5.6906C525.849 5.6906 525.846 5.69133 525.843 5.6917C525.829 5.69206 525.815 5.69461 525.801 5.6957C525.551 5.71576 525.339 5.87657 525.246 6.10376L523.592 8.84962L521.881 6.01004C521.879 6.00603 521.876 6.00311 521.873 5.9991C521.86 5.97868 521.845 5.96044 521.83 5.94184C521.817 5.92581 521.806 5.90867 521.792 5.89408C521.778 5.87985 521.762 5.86746 521.747 5.85433C521.73 5.83938 521.713 5.82297 521.694 5.80984C521.679 5.7989 521.662 5.79051 521.645 5.78103C521.625 5.76937 521.606 5.75697 521.584 5.74749C521.567 5.73946 521.548 5.73472 521.53 5.72816C521.508 5.72087 521.486 5.71247 521.463 5.70738C521.447 5.70336 521.429 5.70227 521.412 5.69972C521.385 5.69607 521.36 5.69242 521.333 5.6917C521.329 5.6917 521.326 5.6906 521.322 5.6906C521.308 5.6906 521.295 5.69388 521.281 5.69461C521.256 5.69644 521.23 5.6979 521.204 5.70264C521.184 5.70628 521.165 5.71247 521.145 5.71795C521.124 5.72415 521.103 5.72998 521.082 5.73837C521.06 5.74749 521.038 5.75879 521.017 5.77009C521.004 5.77739 520.99 5.78213 520.977 5.79015C520.973 5.7927 520.97 5.79599 520.966 5.79854C520.946 5.81167 520.928 5.82771 520.909 5.84303C520.894 5.85579 520.878 5.86746 520.864 5.88131C520.849 5.89627 520.837 5.91341 520.823 5.92981C520.809 5.94659 520.794 5.96263 520.782 5.9805C520.77 5.998 520.761 6.01733 520.751 6.03593C520.741 6.05489 520.729 6.07312 520.721 6.09282C520.712 6.11251 520.707 6.1333 520.7 6.15408C520.694 6.17486 520.686 6.19492 520.681 6.21643C520.677 6.23503 520.676 6.25473 520.673 6.27405C520.67 6.29921 520.666 6.324 520.666 6.34953C520.666 6.35391 520.665 6.35792 520.665 6.3623V11.4C520.665 11.7709 520.959 12.0718 521.322 12.0718C521.684 12.0718 521.979 11.7709 521.979 11.4V8.73405L523.006 10.4395C523.13 10.6456 523.345 10.759 523.566 10.759C523.575 10.759 523.583 10.7561 523.592 10.7557C523.6 10.7561 523.609 10.759 523.617 10.759C523.838 10.759 524.053 10.6456 524.178 10.4395L525.195 8.74968V12.0681C525.195 12.8003 524.613 13.3958 523.897 13.3958H520.047C519.401 13.3958 518.861 12.9221 518.764 12.2694L518.748 12.1928C518.737 12.152 517.645 8.08603 517.506 6.51217C517.451 5.88897 517.58 5.38319 517.878 5.04917C518.165 4.7279 518.622 4.55834 519.199 4.55834H521.375C522.141 4.55834 522.764 3.92165 522.764 3.13873V2.1093C522.764 1.86571 522.958 1.66733 523.196 1.66733L524.039 1.66734C524.278 1.66734 524.472 1.86571 524.472 2.1093V3.13873C524.472 3.92165 525.095 4.55834 525.86 4.55834H528.036C528.582 4.55834 529.021 4.73192 529.304 5.06011C529.615 5.42185 529.743 5.97722 529.663 6.61792C529.373 8.79708 528.448 12.5093 528.439 12.5465C528.349 12.9061 528.561 13.2718 528.913 13.3637C529.265 13.4563 529.622 13.2386 529.712 12.8794C529.751 12.7245 530.665 9.05528 530.966 6.79299C531.095 5.75843 530.854 4.82746 530.289 4.17217Z" fill="#F300A0"/>
<path fill-rule="evenodd" clip-rule="evenodd" d="M506.564 17.2369C503.983 17.2369 501.539 18.6718 500.336 20.8927C500.169 21.1996 500.278 21.5866 500.577 21.7571C500.878 21.9272 501.256 21.8161 501.422 21.5092C502.41 19.6863 504.428 18.5086 506.564 18.5086C509.856 18.5086 512.534 21.2493 512.534 24.6187C512.534 27.9876 509.856 30.7284 506.564 30.7284C504.122 30.7284 502.999 29.5548 502.488 28.57C501.739 27.1302 501.947 25.4246 502.522 24.5507C503.076 23.7074 503.79 23.2735 504.097 23.1796C504.67 23.8575 505.57 24.9227 505.873 25.2817V27.1605C505.873 27.5116 506.151 27.7964 506.495 27.7964C506.838 27.7964 507.116 27.5116 507.116 27.1605V25.1927L508.842 22.766C509.043 22.482 508.982 22.0843 508.705 21.8775C508.427 21.6711 508.039 21.7336 507.837 22.0177L506.43 23.9963C505.978 23.4623 505.318 22.6804 504.91 22.1968C504.804 22.0712 504.556 21.8641 504.124 21.891C503.309 21.9407 502.201 22.7605 501.491 23.8402C500.547 25.2745 500.505 27.4654 501.391 29.1671C501.941 30.2251 503.344 32 506.564 32C510.541 32 513.776 28.6887 513.776 24.6187C513.776 20.5482 510.541 17.2369 506.564 17.2369Z" fill="#F39200"/>
<path fill-rule="evenodd" clip-rule="evenodd" d="M526.559 17.3782H518.891C517.276 17.3782 516.057 18.5498 516.057 20.1031C516.057 21.4552 517.126 22.9145 518.853 22.9145H520.462V27.2427C520.462 27.6104 520.753 27.9086 521.112 27.9086C521.471 27.9086 521.762 27.6104 521.762 27.2427V25.4114H522.42C522.437 25.4114 522.454 25.4074 522.472 25.406L524.23 27.6588C524.359 27.8233 524.547 27.9086 524.738 27.9086C524.881 27.9086 525.024 27.8609 525.144 27.763C525.424 27.533 525.47 27.1141 525.245 26.8267L523.478 24.5626L525.08 22.6871C525.317 22.4106 525.29 21.9902 525.02 21.7476C524.75 21.505 524.339 21.5332 524.102 21.8098L522.189 24.0475C522.18 24.0576 522.175 24.0692 522.167 24.0796H521.762V22.2486C521.762 21.881 521.471 21.5828 521.112 21.5828C521.103 21.5828 521.094 21.5853 521.085 21.5857C521.075 21.5853 521.066 21.5828 521.056 21.5828H518.853C517.929 21.5828 517.357 20.8146 517.357 20.1031C517.357 19.4109 517.884 18.7099 518.891 18.7099H526.559C527.785 18.7099 528.784 19.7326 528.784 20.9899V28.247C528.784 29.5043 527.785 30.527 526.559 30.527H519.475C518.249 30.527 517.25 29.5043 517.25 28.247V24.7838C517.25 24.4162 516.959 24.118 516.6 24.118C516.241 24.118 515.95 24.4162 515.95 24.7838V28.247C515.95 30.2385 517.532 31.8587 519.475 31.8587H526.559C528.502 31.8587 530.084 30.2385 530.084 28.247V20.9899C530.084 18.9984 528.502 17.3782 526.559 17.3782Z" fill="black"/>
</svg>
