<svg width="595" height="842" viewBox="0 0 595 842" fill="none" xmlns="http://www.w3.org/2000/svg">
<g clip-path="url(#clip0_3725_9053)">
<path d="M1094.68 467.681C763.854 401.872 -28.5429 369.194 -551.514 764.959" stroke="#D6D6D6" stroke-linecap="round"/>
<path d="M1093.35 527.643C762.523 461.834 -29.8736 429.156 -552.844 824.921" stroke="#D6D6D6" stroke-linecap="round"/>
<path d="M1092.02 587.57C761.193 521.761 -31.2042 489.083 -554.175 884.848" stroke="#D6D6D6" stroke-linecap="round"/>
<path d="M1090.68 647.546C759.855 581.736 -32.5421 549.058 -555.513 944.824" stroke="#D6D6D6" stroke-linecap="round"/>
<path d="M1089.35 707.494C758.524 641.685 -33.8727 609.007 -556.843 1004.77" stroke="#D6D6D6" stroke-linecap="round"/>
<path d="M1088.02 767.532C757.194 701.723 -35.2033 669.045 -558.174 1064.81" stroke="#D6D6D6" stroke-linecap="round"/>
<path d="M1086.69 827.466C755.863 761.657 -36.5339 728.979 -559.505 1124.74" stroke="#D6D6D6" stroke-linecap="round"/>
<path d="M1085.36 887.395C754.532 821.585 -37.8645 788.907 -560.835 1184.67" stroke="#D6D6D6" stroke-linecap="round"/>
<path d="M1084.03 947.376C753.202 881.567 -39.1951 848.889 -562.166 1244.65" stroke="#D6D6D6" stroke-linecap="round"/>
<path d="M1082.69 1007.35C751.864 941.541 -40.533 908.864 -563.504 1304.63" stroke="#D6D6D6" stroke-linecap="round"/>
<path d="M1081.36 1067.24C750.533 1001.43 -41.8636 968.749 -564.834 1364.51" stroke="#D6D6D6" stroke-linecap="round"/>
<path d="M1080.03 1127.23C749.203 1061.42 -43.1942 1028.74 -566.165 1424.5" stroke="#D6D6D6" stroke-linecap="round"/>
<path d="M1078.7 1187.18C747.872 1121.37 -44.5248 1088.69 -567.496 1484.45" stroke="#D6D6D6" stroke-linecap="round"/>
<path d="M1077.37 1247.13C746.541 1181.32 -45.8554 1148.64 -568.826 1544.41" stroke="#D6D6D6" stroke-linecap="round"/>
<path d="M1076.04 1307.09C745.211 1241.28 -47.186 1208.6 -570.157 1604.37" stroke="#D6D6D6" stroke-linecap="round"/>
<path d="M1074.7 1367.07C743.873 1301.27 -48.5239 1268.59 -571.495 1664.35" stroke="#D6D6D6" stroke-linecap="round"/>
<path d="M1073.37 1427.05C742.542 1361.24 -49.8545 1328.56 -572.825 1724.33" stroke="#D6D6D6" stroke-linecap="round"/>
</g>
<defs>
<clipPath id="clip0_3725_9053">
<rect width="595" height="842" fill="white" transform="matrix(-1 0 0 1 595 0)"/>
</clipPath>
</defs>
</svg>
